<svg width="731" height="129" viewBox="0 0 731 129" fill="none" xmlns="http://www.w3.org/2000/svg">
<path d="M0.632041 43.3498C0.21068 43.3498 0 43.139 0 42.7176C0 42.4767 0.0902915 42.2359 0.270875 41.9951C0.481555 41.7241 0.722332 41.5887 0.993206 41.5887H3.61166C4.03302 41.5887 4.42428 41.4231 4.78545 41.092C5.17671 40.7608 5.41749 40.3544 5.50778 39.8727L13.95 3.52217V3.16092C13.95 2.76957 13.8447 2.45348 13.634 2.21264C13.3932 1.97181 13.1073 1.8514 12.7762 1.8514H10.1578C9.79663 1.8514 9.61605 1.61056 9.61605 1.1289C9.61605 0.82786 9.70634 0.571976 9.88692 0.361248C10.0675 0.120416 10.3083 0 10.6093 0H24.785C28.818 0 32.3394 0.617133 35.3491 1.8514C38.3588 3.05556 39.8637 5.34346 39.8637 8.71511C39.8637 13.6221 37.9074 17.2496 33.9947 19.5977C30.0821 21.9458 25.2214 23.1199 19.4127 23.1199H15.4398L11.4219 39.8727V40.2791C11.4219 40.6404 11.5272 40.9565 11.7379 41.2274C11.9185 41.4683 12.2044 41.5887 12.5957 41.5887H15.2141C15.4248 41.5887 15.5903 41.6489 15.7107 41.7693C15.801 41.9198 15.8462 42.0553 15.8462 42.1757C15.8462 42.4767 15.7559 42.7477 15.5753 42.9885C15.3947 43.2293 15.1539 43.3498 14.853 43.3498H0.632041ZM15.801 21.4943H19.7738C29.104 21.4943 33.769 16.8432 33.769 7.54105C33.769 5.16284 33.0467 3.61248 31.602 2.88999C30.1574 2.19759 28.3064 1.8514 26.0491 1.8514H20.2704L15.801 21.4943ZM41.0375 43.9368C39.2016 43.9368 37.5462 43.4702 36.0715 42.5369C34.5967 41.5736 33.8593 40.3544 33.8593 38.8793C33.8593 38.217 34.0399 37.7053 34.4011 37.344C34.7321 36.9828 35.1685 36.8021 35.7103 36.8021C36.2219 36.8021 36.6584 36.9376 37.0195 37.2085C37.3807 37.4795 37.5613 37.8859 37.5613 38.4278C37.5613 38.7288 37.4559 39.1051 37.2452 39.5567C37.0647 40.0383 36.9744 40.3996 36.9744 40.6404C36.9744 41.3328 37.3807 41.8295 38.1933 42.1305C39.036 42.4617 39.9841 42.6273 41.0375 42.6273C42.8734 42.6273 44.5589 42.1155 46.0938 41.092C47.5987 40.0684 48.3511 38.6084 48.3511 36.7118C48.3511 35.2969 47.9147 34.2583 47.0419 33.5961C46.1992 32.9338 44.8598 32.2865 43.0239 31.6544C41.7598 31.2329 40.7365 30.8415 39.954 30.4803C39.2016 30.0889 38.5545 29.517 38.0127 28.7644C37.5011 28.0118 37.2452 27.0484 37.2452 25.8744C37.2452 24.309 37.6817 22.864 38.5545 21.5394C39.4273 20.2449 40.571 19.2063 41.9855 18.4236C43.37 17.6409 44.7996 17.2496 46.2744 17.2496C47.9598 17.2496 49.4797 17.7313 50.8341 18.6946C52.2186 19.688 52.9108 20.8922 52.9108 22.3071C52.9108 23.0296 52.7453 23.5714 52.4142 23.9327C52.0531 24.2939 51.6016 24.4745 51.0598 24.4745C50.5482 24.4745 50.1118 24.3391 49.7506 24.0681C49.4195 23.8273 49.254 23.451 49.254 22.9392C49.254 22.6382 49.3443 22.2619 49.5249 21.8103C49.7055 21.3588 49.7958 20.9975 49.7958 20.7266C49.7958 20.0041 49.4196 19.4472 48.6671 19.0558C47.9147 18.6645 47.0118 18.4688 45.9584 18.4688C44.2729 18.4688 42.9035 18.9806 41.8501 20.0041C40.7967 21.0276 40.27 22.2017 40.27 23.5263C40.27 24.6702 40.6613 25.4981 41.4438 26.0099C42.2263 26.5517 43.4152 27.0936 45.0103 27.6355C46.3647 28.087 47.4632 28.5235 48.306 28.945C49.1487 29.3664 49.856 30.0137 50.4278 30.8867C51.0297 31.7597 51.3307 32.8886 51.3307 34.2734C51.3307 36.1097 50.804 37.7655 49.7506 39.2406C48.6972 40.7157 47.3729 41.8747 45.7778 42.7176C44.2127 43.5304 42.6326 43.9368 41.0375 43.9368ZM68.441 9.0312C67.8992 9.0312 67.4327 8.82047 67.0414 8.39902C66.6803 7.97756 66.4997 7.45074 66.4997 6.81856C66.4997 5.94554 66.8458 5.10263 67.538 4.28982C68.2303 3.44691 68.9978 3.02545 69.8405 3.02545C70.4725 3.02545 70.9992 3.26628 71.4206 3.74795C71.8419 4.19951 72.0526 4.74138 72.0526 5.37356C72.0526 6.21648 71.6764 7.04434 70.924 7.85714C70.1715 8.63985 69.3439 9.0312 68.441 9.0312ZM62.888 43.9819C61.8346 43.9819 60.9167 43.6658 60.1341 43.0337C59.3516 42.3714 58.9604 41.393 58.9604 40.0985C58.9604 38.9847 59.2162 37.63 59.7278 36.0345C60.2395 34.439 60.9919 32.2715 61.9851 29.532C62.1356 29.1407 62.4667 28.2225 62.9783 26.7775C63.5201 25.3325 63.9113 24.1284 64.1521 23.165C64.3929 22.2318 64.5133 21.4792 64.5133 20.9072C64.5133 20.4256 64.4079 20.0041 64.1973 19.6429C63.9866 19.3117 63.6706 19.1461 63.2492 19.1461C62.3463 19.1461 61.3681 19.8385 60.3147 21.2233C59.2613 22.6382 58.2681 24.5047 57.3351 26.8227L56.5676 26.5969C57.8317 23.737 59.1108 21.4641 60.405 19.7783C61.7293 18.0925 63.2943 17.2496 65.1002 17.2496C66.1837 17.2496 67.0715 17.5657 67.7638 18.1979C68.4259 18.7999 68.757 19.7031 68.757 20.9072C68.757 21.9609 68.5162 23.2854 68.0346 24.881C67.5531 26.4464 66.8759 28.4182 66.0031 30.7964C65.0701 33.3251 64.3929 35.2518 63.9715 36.5764C63.5502 37.9009 63.3395 39.0298 63.3395 39.9631C63.3395 41.3177 63.806 41.9951 64.739 41.9951C65.7021 41.9951 66.6803 41.2876 67.6735 39.8727C68.6968 38.4579 69.6749 36.6366 70.608 34.4089L71.2851 34.5895C70.0813 37.5397 68.8473 39.8426 67.5832 41.4984C66.3191 43.1541 64.7541 43.9819 62.888 43.9819ZM83.1133 43.9368C80.6153 43.9368 78.5687 43.139 76.9735 41.5435C75.3784 39.948 74.5808 37.7053 74.5808 34.8153C74.5808 32.0758 75.3031 29.3815 76.7478 26.7323C78.1623 24.0531 80.0585 21.8706 82.4361 20.1847C84.7837 18.4989 87.2366 17.656 89.7949 17.656C91.4803 17.656 92.8799 18.0323 93.9935 18.7849C95.0769 19.5375 95.6187 20.6664 95.6187 22.1716C95.6187 23.436 95.2575 24.3993 94.5352 25.0616C93.7828 25.7239 92.9852 26.055 92.1425 26.055C91.5104 26.055 91.0138 25.8593 90.6527 25.468C90.2915 25.0465 90.1109 24.5649 90.1109 24.023C90.1109 23.1801 90.457 22.4275 91.1493 21.7652C91.8716 21.0728 92.5638 20.7266 93.226 20.7266C93.1056 19.2214 92.0371 18.4688 90.0206 18.4688C87.7332 18.4688 85.7468 19.4472 84.0614 21.4039C82.3759 23.3607 81.0968 25.7389 80.224 28.5386C79.3813 31.3383 78.9599 33.9423 78.9599 36.3506C78.9599 38.3675 79.3361 39.9028 80.0886 40.9565C80.841 42.0101 82.1201 42.5369 83.926 42.5369C85.792 42.5369 87.4323 42.0101 88.8468 40.9565C90.2614 39.8727 91.3449 38.3525 92.0973 36.3957L92.9551 36.6215C92.293 38.5482 91.1192 40.249 89.4337 41.7241C87.7483 43.1992 85.6415 43.9368 83.1133 43.9368ZM106.77 43.9368C104.181 43.9368 102.105 43.0186 100.54 41.1823C98.9444 39.3459 98.1469 36.9978 98.1469 34.1379C98.1469 31.3985 98.8541 28.7192 100.269 26.1002C101.683 23.4811 103.534 21.3588 105.822 19.7332C108.079 18.0774 110.411 17.2496 112.819 17.2496C115.347 17.2496 117.364 18.1828 118.869 20.0493C120.344 21.8856 121.081 24.2488 121.081 27.1388C121.081 29.9083 120.404 32.5876 119.049 35.1765C117.665 37.7655 115.874 39.8727 113.677 41.4984C111.45 43.124 109.147 43.9368 106.77 43.9368ZM106.95 42.8079C108.786 42.8079 110.442 41.8295 111.916 39.8727C113.361 37.916 114.49 35.5077 115.302 32.6478C116.085 29.818 116.476 27.214 116.476 24.8358C116.476 22.8188 116.145 21.2534 115.483 20.1396C114.791 19.0257 113.797 18.4688 112.503 18.4688C110.697 18.4688 109.057 19.4622 107.582 21.4491C106.108 23.4661 104.964 25.8894 104.151 28.7192C103.309 31.5791 102.887 34.168 102.887 36.486C102.887 38.503 103.233 40.0534 103.926 41.1371C104.618 42.251 105.626 42.8079 106.95 42.8079ZM112.007 14.4048L111.239 13.592C112.744 11.876 114.083 10.3106 115.257 8.89573C116.401 7.48084 117.168 6.53257 117.56 6.0509L118.959 4.38013C119.711 3.3867 120.389 2.70936 120.991 2.34811C121.623 1.95676 122.285 1.76109 122.977 1.76109C123.699 1.76109 124.271 2.01697 124.693 2.52874C125.084 3.0405 125.219 3.58238 125.099 4.15435C124.918 4.87685 124.632 5.44882 124.241 5.87028C123.88 6.29174 123.218 6.84866 122.255 7.54105C121.954 7.75178 121.668 7.9324 121.397 8.08292C121.126 8.26355 120.84 8.45922 120.539 8.66995C118.462 9.96442 115.618 11.876 112.007 14.4048ZM137.965 1.5353L129.568 38.9245C129.448 39.4362 129.388 39.8577 129.388 40.1888C129.388 41.393 129.914 41.9951 130.968 41.9951C132.774 41.9951 134.73 39.4663 136.837 34.4089L137.514 34.5895C136.22 37.5698 134.956 39.8878 133.722 41.5435C132.518 43.1691 130.983 43.9819 129.117 43.9819C128.063 43.9819 127.161 43.711 126.408 43.1691C125.656 42.5972 125.279 41.6489 125.279 40.3243C125.279 39.8727 125.34 39.3309 125.46 38.6987L133.496 3.52217C133.526 3.37165 133.541 3.16092 133.541 2.88999C133.541 2.13739 133.24 1.68582 132.638 1.5353C132.036 1.38478 131.163 1.30952 130.02 1.30952C129.478 1.30952 129.207 1.0988 129.207 0.67734C129.207 0.436508 129.267 0.270936 129.388 0.180624C129.508 0.0602078 129.719 0 130.02 0H136.972C137.695 0 138.056 0.331145 138.056 0.993433C138.056 1.20416 138.026 1.38478 137.965 1.5353ZM149.162 43.9368C146.603 43.9368 144.527 43.0186 142.931 41.1823C141.366 39.3459 140.584 36.9978 140.584 34.1379C140.584 31.3985 141.276 28.7192 142.661 26.1002C144.075 23.4811 145.926 21.3588 148.213 19.7332C150.501 18.0774 152.833 17.2496 155.211 17.2496C157.739 17.2496 159.756 18.1828 161.261 20.0493C162.765 21.8856 163.518 24.2488 163.518 27.1388C163.518 29.9083 162.826 32.5876 161.441 35.1765C160.087 37.7655 158.296 39.8727 156.069 41.4984C153.872 43.124 151.569 43.9368 149.162 43.9368ZM149.342 42.8079C151.208 42.8079 152.864 41.8295 154.308 39.8727C155.753 37.916 156.881 35.5077 157.694 32.6478C158.507 29.818 158.913 27.214 158.913 24.8358C158.913 22.8188 158.567 21.2534 157.875 20.1396C157.213 19.0257 156.219 18.4688 154.895 18.4688C153.089 18.4688 151.449 19.4622 149.974 21.4491C148.499 23.4661 147.356 25.8894 146.543 28.7192C145.73 31.5791 145.324 34.168 145.324 36.486C145.324 38.503 145.67 40.0534 146.363 41.1371C147.055 42.251 148.048 42.8079 149.342 42.8079ZM193.766 19.2816C193.856 20.0041 193.751 20.5911 193.45 21.0427C193.179 21.4641 192.727 21.6749 192.095 21.6749C191.674 21.6749 191.358 21.5996 191.147 21.4491C190.936 21.2685 190.696 20.9975 190.425 20.6363C190.184 20.275 189.913 20.0944 189.612 20.0944C188.8 20.0944 188.393 21.1782 188.393 23.3456L188.484 24.8358C188.604 26.8528 188.152 28.659 187.129 30.2545C186.076 31.8199 184.676 33.0542 182.931 33.9573C181.185 34.8303 179.349 35.2668 177.423 35.2668C176.309 35.2668 175.361 35.1163 174.579 34.8153C173.014 34.9959 171.9 35.3872 171.238 35.9893C170.546 36.5613 170.199 37.1634 170.199 37.7956C170.199 38.5181 170.666 38.9997 171.599 39.2406C172.532 39.4513 174.067 39.647 176.204 39.8276C178.01 39.9179 179.319 40.0233 180.132 40.1437C182.66 40.4748 184.601 41.092 185.955 41.9951C187.31 42.8982 187.987 44.3883 187.987 46.4655C187.987 49.205 186.768 51.3123 184.33 52.7874C181.922 54.2625 178.521 55 174.127 55C167.716 55 164.511 53.2991 164.511 49.8974C164.511 48.332 165.083 47.0676 166.227 46.1043C167.37 45.1108 168.996 44.2228 171.102 43.4401C169.628 43.2293 168.544 42.8229 167.852 42.2209C167.16 41.5887 166.814 40.6855 166.814 39.5115C166.814 38.1267 167.34 37.043 168.394 36.2603C169.477 35.4776 171.178 34.8604 173.495 34.4089C170.666 32.9639 169.251 30.6158 169.251 27.3645C169.251 25.4379 169.733 23.7069 170.696 22.1716C171.689 20.6363 173.014 19.4321 174.669 18.5591C176.324 17.6861 178.13 17.2496 180.086 17.2496C181.922 17.2496 183.502 17.656 184.827 18.4688C186.151 19.2515 187.129 20.3654 187.761 21.8103C187.942 20.0342 188.393 18.83 189.116 18.1979C189.868 17.5657 190.666 17.2496 191.508 17.2496C192.953 17.2496 193.705 17.9269 193.766 19.2816ZM177.649 34.1831C178.762 34.1831 179.8 33.8218 180.764 33.0993C181.727 32.3467 182.509 31.263 183.111 29.8481C183.683 28.4031 183.969 26.6872 183.969 24.7003C183.969 22.6834 183.668 21.118 183.066 20.0041C182.464 18.8903 181.396 18.3333 179.861 18.3333C177.965 18.3333 176.46 19.2064 175.346 20.9524C174.202 22.6984 173.631 24.8207 173.631 27.3194C173.631 31.8952 174.97 34.1831 177.649 34.1831ZM174.94 43.9368C174.579 43.8465 173.977 43.8013 173.134 43.8013C169.883 45.0657 168.258 47.0224 168.258 49.6716C168.258 51.0865 168.785 52.11 169.838 52.7422C170.922 53.4045 172.833 53.7356 175.572 53.7356C178.852 53.7356 181.275 53.269 182.84 52.3358C184.405 51.3725 185.188 50.093 185.188 48.4975C185.188 47.3235 184.766 46.4354 183.924 45.8333C183.081 45.2313 182.013 44.8248 180.718 44.6141C179.394 44.3733 177.468 44.1475 174.94 43.9368ZM201.576 44.2077C200.432 44.2077 199.273 43.9217 198.1 43.3498C196.896 42.7778 195.887 41.8596 195.075 40.5952C194.262 39.3309 193.856 37.6902 193.856 35.6732C193.856 33.0843 194.488 30.3448 195.752 27.4548C197.046 24.5649 198.732 22.1415 200.808 20.1847C202.915 18.228 205.082 17.2496 207.309 17.2496C208.483 17.2496 209.552 17.5807 210.515 18.243C211.508 18.9053 212.275 19.6579 212.817 20.5008C212.937 20.6513 213.088 20.7266 213.269 20.7266C213.539 20.7266 213.72 20.5761 213.81 20.275L214.217 18.9655C214.337 18.4236 214.668 18.1527 215.21 18.1527H217.241C217.903 18.1527 218.174 18.514 218.054 19.2365C214.924 31.7898 213.359 38.8191 213.359 40.3243C213.359 40.8361 213.494 41.2425 213.765 41.5435C214.066 41.8446 214.427 41.9951 214.849 41.9951C215.721 41.9951 216.67 41.3027 217.693 39.9179C218.686 38.5632 219.664 36.7269 220.627 34.4089L221.35 34.5895C219.995 37.7805 218.701 40.1437 217.467 41.679C216.203 43.2143 214.593 43.9819 212.636 43.9819C211.402 43.9819 210.575 43.6959 210.153 43.124C209.732 42.5219 209.401 41.6338 209.16 40.4598C209.1 40.0082 208.919 39.948 208.619 40.2791C207.354 41.5435 206.196 42.5068 205.142 43.1691C204.059 43.8615 202.87 44.2077 201.576 44.2077ZM201.982 42.5369C204.029 42.5369 205.684 41.8596 206.948 40.5049C208.212 39.1804 209.266 37.2989 210.108 34.8604C210.951 32.4521 211.824 29.0955 212.727 24.7906C212.727 23.3155 212.381 21.9157 211.688 20.5911C210.996 19.2967 209.913 18.6494 208.438 18.6494C206.452 18.6494 204.676 19.673 203.111 21.72C201.516 23.7671 200.282 26.2808 199.409 29.2611C198.536 32.2113 198.1 34.9357 198.1 37.4343C198.1 39.1201 198.37 40.3996 198.912 41.2726C199.484 42.1155 200.507 42.5369 201.982 42.5369ZM237.151 43.3498C236.729 43.3498 236.519 43.139 236.519 42.7176C236.519 42.4767 236.609 42.2359 236.789 41.9951C236.97 41.7241 237.211 41.5887 237.512 41.5887C238.866 41.5887 240.175 41.0769 241.439 40.0534C242.704 39.0298 243.486 37.7805 243.787 36.3054L251.281 3.97373L251.372 3.43186C251.372 2.95019 251.221 2.55884 250.92 2.2578C250.619 1.98686 250.243 1.8514 249.791 1.8514H246.676C246.315 1.8514 246.135 1.61056 246.135 1.1289C246.135 0.82786 246.225 0.571976 246.405 0.361248C246.586 0.120416 246.827 0 247.128 0H257.873C258.474 0 258.79 0.301041 258.821 0.903121L262.116 33.7767L280.31 0.67734C280.551 0.22578 280.927 0 281.439 0H291.1C291.31 0 291.476 0.0602078 291.596 0.180624C291.687 0.30104 291.732 0.436508 291.732 0.587028C291.732 0.857964 291.627 1.14395 291.416 1.44499C291.175 1.71593 290.934 1.8514 290.693 1.8514H288.075C287.654 1.8514 287.232 2.01697 286.811 2.34811C286.39 2.67926 286.134 3.07061 286.043 3.52217L277.601 39.8727V40.1437C277.601 40.5651 277.707 40.9113 277.917 41.1823C278.158 41.4532 278.474 41.5887 278.865 41.5887H281.393C281.845 41.5887 282.071 41.8295 282.071 42.3112C282.071 42.6423 281.98 42.8982 281.8 43.0788C281.619 43.2594 281.378 43.3498 281.077 43.3498H266.857C266.465 43.3498 266.27 43.1691 266.27 42.8079C266.27 42.5068 266.375 42.2359 266.586 41.9951C266.766 41.7241 266.977 41.5887 267.218 41.5887H269.881C270.303 41.5887 270.709 41.4231 271.1 41.092C271.461 40.7608 271.687 40.3544 271.777 39.8727L280.039 4.15435L258.821 42.6724C258.61 43.124 258.279 43.3498 257.827 43.3498C257.346 43.3498 257.09 43.0638 257.06 42.4918L253.132 3.16092L245.277 36.3054C245.247 36.4559 245.217 36.6667 245.187 36.9376C245.126 37.1784 245.096 37.4042 245.096 37.6149C245.096 38.7589 245.472 39.7072 246.225 40.4598C246.947 41.2124 247.895 41.5887 249.069 41.5887C249.28 41.5887 249.445 41.6489 249.566 41.7693C249.656 41.9198 249.701 42.0553 249.701 42.1757C249.701 42.4767 249.611 42.7477 249.43 42.9885C249.25 43.2293 249.009 43.3498 248.708 43.3498H237.151ZM296.156 44.2077C295.043 44.2077 293.884 43.9217 292.68 43.3498C291.506 42.7778 290.513 41.8596 289.7 40.5952C288.888 39.3309 288.481 37.6902 288.481 35.6732C288.481 33.0843 289.113 30.3448 290.377 27.4548C291.672 24.5649 293.357 22.1415 295.434 20.1847C297.541 18.228 299.708 17.2496 301.935 17.2496C303.109 17.2496 304.177 17.5807 305.14 18.243C306.103 18.9053 306.871 19.6579 307.443 20.5008C307.563 20.6513 307.698 20.7266 307.849 20.7266C308.15 20.7266 308.345 20.5761 308.436 20.275L308.797 18.9655C308.947 18.4236 309.294 18.1527 309.835 18.1527H311.867C312.529 18.1527 312.8 18.514 312.679 19.2365C309.549 31.7898 307.984 38.8191 307.984 40.3243C307.984 40.8361 308.12 41.2425 308.391 41.5435C308.661 41.8446 309.008 41.9951 309.429 41.9951C310.332 41.9951 311.28 41.3027 312.273 39.9179C313.296 38.5632 314.29 36.7269 315.253 34.4089L315.975 34.5895C314.621 37.7805 313.312 40.1437 312.047 41.679C310.813 43.2143 309.203 43.9819 307.217 43.9819C306.013 43.9819 305.2 43.6959 304.779 43.124C304.358 42.5219 304.011 41.6338 303.741 40.4598C303.711 40.0082 303.545 39.948 303.244 40.2791C301.98 41.5435 300.821 42.5068 299.768 43.1691C298.684 43.8615 297.48 44.2077 296.156 44.2077ZM296.608 42.5369C298.624 42.5369 300.264 41.8596 301.528 40.5049C302.793 39.1804 303.846 37.2989 304.689 34.8604C305.531 32.4521 306.419 29.0955 307.352 24.7906C307.352 23.3155 307.006 21.9157 306.314 20.5911C305.622 19.2967 304.538 18.6494 303.063 18.6494C301.077 18.6494 299.301 19.673 297.736 21.72C296.141 23.7671 294.907 26.2808 294.034 29.2611C293.131 32.2113 292.68 34.9357 292.68 37.4343C292.68 39.1201 292.966 40.3996 293.538 41.2726C294.109 42.1155 295.133 42.5369 296.608 42.5369ZM323.108 43.3498C322.807 43.3498 322.566 43.2594 322.386 43.0788C322.235 42.8982 322.205 42.6423 322.296 42.3112L323.785 36.0345C324.839 31.6393 325.606 28.358 326.088 26.1905C326.539 24.023 326.765 22.3522 326.765 21.1782C326.765 19.8235 326.434 19.1461 325.772 19.1461C324.869 19.1461 323.876 19.8837 322.792 21.3588C321.739 22.8038 320.791 24.6251 319.948 26.8227L319.18 26.5969C320.445 23.6467 321.709 21.3588 322.973 19.7332C324.237 18.0774 325.757 17.2496 327.532 17.2496C329.88 17.2496 331.054 18.4688 331.054 20.9072C331.054 21.6899 330.903 22.7135 330.602 23.9778C330.663 23.8875 331.009 23.2553 331.641 22.0813C332.273 20.9373 333.266 19.8536 334.62 18.83C335.945 17.7764 337.374 17.2496 338.909 17.2496C339.993 17.3098 340.805 17.5807 341.347 18.0624C341.919 18.5742 342.205 19.2515 342.205 20.0944C342.205 20.3051 342.16 20.6664 342.069 21.1782C341.889 22.1114 341.498 22.8941 340.896 23.5263C340.294 24.1585 339.586 24.4745 338.774 24.4745C338.262 24.4745 337.856 24.309 337.555 23.9778C337.224 23.6768 337.058 23.2102 337.058 22.578C337.058 22.0963 337.133 21.72 337.284 21.4491C337.434 21.1782 337.66 20.8922 337.961 20.5911C338.322 20.1396 338.503 19.7633 338.503 19.4622C338.503 18.9505 338.187 18.6946 337.555 18.6946C336.712 18.6946 335.764 19.0859 334.711 19.8686C333.657 20.6513 332.649 21.8405 331.686 23.436C330.723 25.0616 329.97 27.0334 329.429 29.3514L326.449 42.5369C326.329 43.0788 325.997 43.3498 325.456 43.3498H323.108ZM347.983 43.9819C346.9 43.9819 345.982 43.6658 345.23 43.0337C344.477 42.3714 344.101 41.393 344.101 40.0985C344.101 38.9847 344.342 37.63 344.823 36.0345C345.335 34.439 346.102 32.2715 347.126 29.532C347.246 29.1407 347.577 28.2225 348.119 26.7775C348.631 25.3325 349.007 24.1284 349.248 23.165C349.518 22.2318 349.654 21.4792 349.654 20.9072C349.654 20.4256 349.548 20.0041 349.338 19.6429C349.127 19.3117 348.811 19.1461 348.39 19.1461C347.457 19.1461 346.448 19.8385 345.365 21.2233C344.312 22.6382 343.318 24.5047 342.385 26.8227L341.663 26.5969C342.867 23.7972 344.131 21.5394 345.455 19.8235C346.81 18.1076 348.39 17.2496 350.196 17.2496C351.309 17.2496 352.197 17.5657 352.859 18.1979C353.551 18.7999 353.898 19.7031 353.898 20.9072C353.898 21.9609 353.657 23.2854 353.175 24.881C352.664 26.4464 351.971 28.4182 351.098 30.7964C350.165 33.3251 349.488 35.2518 349.067 36.5764C348.646 37.9009 348.435 39.0298 348.435 39.9631C348.435 41.3177 348.901 41.9951 349.834 41.9951C350.798 41.9951 351.791 41.2876 352.814 39.8727C353.807 38.4579 354.77 36.6366 355.703 34.4089L356.426 34.5895C355.101 37.5698 353.837 39.8878 352.633 41.5435C351.399 43.1691 349.849 43.9819 347.983 43.9819ZM351.098 14.4048L350.331 13.592C351.866 11.876 353.205 10.3106 354.349 8.89573C355.523 7.48084 356.29 6.53257 356.651 6.0509L358.051 4.38013C358.803 3.3867 359.496 2.70936 360.128 2.34811C360.73 1.95676 361.392 1.76109 362.114 1.76109C362.806 1.76109 363.363 2.01697 363.784 2.52874C364.176 3.0405 364.311 3.58238 364.191 4.15435C364.01 4.87685 363.739 5.44882 363.378 5.87028C362.987 6.29174 362.31 6.84866 361.347 7.54105C361.046 7.75178 360.76 7.9324 360.489 8.08292C360.218 8.26355 359.932 8.45922 359.631 8.66995C357.554 9.96442 354.71 11.876 351.098 14.4048ZM367.216 44.2077C366.072 44.2077 364.913 43.9217 363.739 43.3498C362.566 42.7778 361.572 41.8596 360.76 40.5952C359.917 39.3309 359.496 37.6902 359.496 35.6732C359.496 33.0843 360.143 30.3448 361.437 27.4548C362.731 24.5649 364.416 22.1415 366.493 20.1847C368.57 18.228 370.722 17.2496 372.949 17.2496C374.153 17.2496 375.236 17.5807 376.2 18.243C377.163 18.9053 377.915 19.6579 378.457 20.5008C378.577 20.6513 378.728 20.7266 378.908 20.7266C379.209 20.7266 379.405 20.5761 379.495 20.275L379.856 18.9655C379.977 18.4236 380.308 18.1527 380.85 18.1527H382.881C383.573 18.1527 383.844 18.514 383.694 19.2365C380.594 31.7898 379.044 38.8191 379.044 40.3243C379.044 40.8361 379.179 41.2425 379.45 41.5435C379.721 41.8446 380.067 41.9951 380.488 41.9951C381.361 41.9951 382.309 41.3027 383.333 39.9179C384.356 38.5632 385.349 36.7269 386.312 34.4089L386.989 34.5895C385.635 37.7805 384.341 40.1437 383.107 41.679C381.873 43.2143 380.263 43.9819 378.276 43.9819C377.042 43.9819 376.215 43.6959 375.793 43.124C375.372 42.5219 375.041 41.6338 374.8 40.4598C374.77 40.0082 374.604 39.948 374.303 40.2791C373.039 41.5435 371.866 42.5068 370.782 43.1691C369.699 43.8615 368.51 44.2077 367.216 44.2077ZM367.667 42.5369C369.684 42.5369 371.324 41.8596 372.588 40.5049C373.852 39.1804 374.905 37.2989 375.748 34.8604C376.591 32.4521 377.479 29.0955 378.412 24.7906C378.412 23.3155 378.066 21.9157 377.373 20.5911C376.681 19.2967 375.598 18.6494 374.123 18.6494C372.136 18.6494 370.346 19.673 368.75 21.72C367.185 23.7671 365.951 26.2808 365.049 29.2611C364.176 32.2113 363.739 34.9357 363.739 37.4343C363.739 39.1201 364.025 40.3996 364.597 41.2726C365.169 42.1155 366.192 42.5369 367.667 42.5369ZM410.014 44.2077C407.516 44.2077 405.665 43.6508 404.461 42.5369C403.227 41.393 402.61 39.9028 402.61 38.0665C402.61 36.7118 402.941 35.5528 403.603 34.5895C404.115 33.8369 404.747 33.1746 405.499 32.6026C406.282 32.0307 407.094 31.7447 407.937 31.7447C408.689 31.7447 409.276 31.9704 409.698 32.422C410.119 32.8435 410.33 33.4305 410.33 34.1831C410.33 35.327 409.984 36.3205 409.291 37.1634C408.599 38.0063 407.726 38.4278 406.673 38.4278C406.462 38.4278 406.237 38.5632 405.996 38.8342C405.755 39.075 405.589 39.3459 405.499 39.647C405.349 40.3695 405.559 41.0317 406.131 41.6338C406.703 42.2359 407.696 42.5369 409.111 42.5369C411.067 42.5369 412.647 41.9951 413.851 40.9113C415.025 39.7975 415.943 38.3976 416.605 36.7118C417.267 34.9959 417.884 32.7832 418.456 30.0739L424.46 3.65764V3.43186C424.46 3.0104 424.355 2.69431 424.144 2.48358C423.904 2.27285 423.588 2.16749 423.196 2.16749H420.668C420.307 2.16749 420.126 1.9116 420.126 1.39984C420.126 0.707444 420.457 0.361248 421.12 0.361248H435.205C435.717 0.361248 435.973 0.556924 435.973 0.948276C435.973 1.24932 435.867 1.52025 435.656 1.76109C435.416 2.03202 435.145 2.16749 434.844 2.16749H432.316C431.864 2.16749 431.428 2.30296 431.006 2.57389C430.615 2.87493 430.374 3.23618 430.284 3.65764L424.054 30.977C423.422 33.9573 422.022 36.9075 419.855 39.8276C417.719 42.7477 414.438 44.2077 410.014 44.2077ZM440.848 43.9368C438.29 43.9368 436.213 43.0186 434.618 41.1823C433.053 39.3459 432.271 36.9978 432.271 34.1379C432.271 31.3985 432.978 28.7192 434.392 26.1002C435.777 23.4811 437.613 21.3588 439.9 19.7332C442.188 18.0774 444.52 17.2496 446.898 17.2496C449.426 17.2496 451.442 18.1828 452.947 20.0493C454.452 21.8856 455.205 24.2488 455.205 27.1388C455.205 29.9083 454.512 32.5876 453.128 35.1765C451.774 37.7655 449.983 39.8727 447.756 41.4984C445.558 43.124 443.256 43.9368 440.848 43.9368ZM441.029 42.8079C442.895 42.8079 444.55 41.8295 445.995 39.8727C447.44 37.916 448.568 35.5077 449.381 32.6478C450.193 29.818 450.6 27.214 450.6 24.8358C450.6 22.8188 450.254 21.2534 449.561 20.1396C448.899 19.0257 447.906 18.4688 446.582 18.4688C444.776 18.4688 443.136 19.4622 441.661 21.4491C440.186 23.4661 439.042 25.8894 438.23 28.7192C437.417 31.5791 437.011 34.168 437.011 36.486C437.011 38.503 437.357 40.0534 438.049 41.1371C438.741 42.251 439.735 42.8079 441.029 42.8079ZM464.866 43.9368C463.06 43.9368 461.42 43.4702 459.945 42.5369C458.47 41.5736 457.733 40.3544 457.733 38.8793C457.733 38.217 457.898 37.7053 458.229 37.344C458.56 36.9828 458.997 36.8021 459.539 36.8021C460.05 36.8021 460.487 36.9376 460.848 37.2085C461.209 37.4795 461.39 37.8859 461.39 38.4278C461.39 38.7288 461.299 39.1051 461.119 39.5567C460.908 40.0383 460.803 40.3996 460.803 40.6404C460.803 41.3328 461.224 41.8295 462.067 42.1305C462.879 42.4617 463.812 42.6273 464.866 42.6273C466.732 42.6273 468.417 42.1155 469.922 41.092C471.427 40.0684 472.179 38.6084 472.179 36.7118C472.179 35.2969 471.758 34.2583 470.915 33.5961C470.042 32.9338 468.703 32.2865 466.897 31.6544C465.633 31.2329 464.61 30.8415 463.827 30.4803C463.045 30.0889 462.398 29.517 461.886 28.7644C461.344 28.0118 461.074 27.0484 461.074 25.8744C461.074 24.309 461.51 22.864 462.383 21.5394C463.286 20.2449 464.429 19.2063 465.814 18.4236C467.198 17.6409 468.628 17.2496 470.103 17.2496C471.788 17.2496 473.323 17.7313 474.708 18.6946C476.062 19.688 476.739 20.8922 476.739 22.3071C476.739 23.0296 476.574 23.5714 476.243 23.9327C475.911 24.2939 475.475 24.4745 474.933 24.4745C474.422 24.4745 473.985 24.3391 473.624 24.0681C473.263 23.8273 473.082 23.451 473.082 22.9392C473.082 22.6382 473.173 22.2619 473.353 21.8103C473.564 21.3588 473.669 20.9975 473.669 20.7266C473.669 20.0041 473.278 19.4472 472.495 19.0558C471.743 18.6645 470.84 18.4688 469.787 18.4688C468.101 18.4688 466.732 18.9806 465.678 20.0041C464.625 21.0276 464.098 22.2017 464.098 23.5263C464.098 24.6702 464.49 25.4981 465.272 26.0099C466.055 26.5517 467.243 27.0936 468.839 27.6355C470.193 28.087 471.292 28.5235 472.134 28.945C472.977 29.3664 473.699 30.0137 474.301 30.8867C474.873 31.7597 475.159 32.8886 475.159 34.2734C475.159 36.1097 474.632 37.7655 473.579 39.2406C472.526 40.7157 471.216 41.8747 469.651 42.7176C468.056 43.5304 466.461 43.9368 464.866 43.9368ZM489.064 43.9368C486.626 43.9368 484.549 43.139 482.834 41.5435C481.088 39.948 480.215 37.645 480.215 34.6346C480.215 33.7917 480.366 32.5725 480.667 30.977C481.299 28.2375 482.397 25.8292 483.962 23.7521C485.527 21.6448 487.273 20.0342 489.199 18.9204C491.126 17.8065 492.962 17.2496 494.707 17.2496C497.326 17.2496 499.207 18.1076 500.35 19.8235C501.524 21.5394 502.111 23.5263 502.111 25.7841C502.111 26.8377 502.021 27.6806 501.84 28.3128C501.629 29.3363 501.148 29.8481 500.395 29.8481H488.432C487.378 29.8481 486.611 29.9234 486.129 30.0739C485.648 30.2244 485.347 30.5857 485.227 31.1576C485.166 31.4587 485.031 32.1511 484.82 33.2348C484.61 34.3487 484.504 35.3722 484.504 36.3054C484.504 40.4598 486.43 42.5369 490.283 42.5369H490.463C491.728 42.5068 493.022 42.1155 494.346 41.3629C495.67 40.6404 497.175 39.2857 498.861 37.2989C499.041 37.1182 499.282 37.0279 499.583 37.0279C499.794 37.0279 499.929 37.1032 499.989 37.2537C500.049 37.3741 499.989 37.5547 499.809 37.7956C499.478 38.3073 498.845 39.0449 497.912 40.0082C496.949 40.9414 495.685 41.8295 494.12 42.6724C492.555 43.5153 490.87 43.9368 489.064 43.9368ZM486.084 28.2677H496.152C496.754 28.2677 497.115 28.2074 497.235 28.087C497.356 27.9967 497.476 27.6806 497.596 27.1388C497.897 25.9346 498.048 24.595 498.048 23.1199C498.048 19.9288 496.949 18.3333 494.752 18.3333C493.157 18.3333 491.577 19.1612 490.012 20.8169C488.417 22.5027 487.108 24.9863 486.084 28.2677ZM494.256 14.4048L493.488 13.592C495.023 11.876 496.362 10.3106 497.506 8.89573C498.68 7.48084 499.447 6.53257 499.809 6.0509L501.208 4.38013C501.961 3.3867 502.653 2.70936 503.285 2.34811C503.887 1.95676 504.549 1.76109 505.271 1.76109C505.963 1.76109 506.52 2.01697 506.942 2.52874C507.333 3.0405 507.468 3.58238 507.348 4.15435C507.167 4.87685 506.896 5.44882 506.535 5.87028C506.144 6.29174 505.467 6.84866 504.504 7.54105C504.203 7.75178 503.917 7.9324 503.646 8.08292C503.375 8.26355 503.089 8.45922 502.788 8.66995C500.712 9.96442 497.867 11.876 494.256 14.4048ZM525.045 44.2077C522.547 44.2077 520.696 43.6508 519.492 42.5369C518.258 41.393 517.641 39.9028 517.641 38.0665C517.641 36.7118 517.972 35.5528 518.634 34.5895C519.146 33.8369 519.778 33.1746 520.531 32.6026C521.313 32.0307 522.126 31.7447 522.968 31.7447C523.721 31.7447 524.308 31.9704 524.729 32.422C525.15 32.8435 525.361 33.4305 525.361 34.1831C525.361 35.327 525.015 36.3205 524.323 37.1634C523.631 38.0063 522.758 38.4278 521.704 38.4278C521.494 38.4278 521.268 38.5632 521.027 38.8342C520.786 39.075 520.621 39.3459 520.531 39.647C520.38 40.3695 520.591 41.0317 521.163 41.6338C521.734 42.2359 522.728 42.5369 524.142 42.5369C526.098 42.5369 527.679 41.9951 528.882 40.9113C530.056 39.7975 530.974 38.3976 531.636 36.7118C532.298 34.9959 532.915 32.7832 533.487 30.0739L539.492 3.65764V3.43186C539.492 3.0104 539.386 2.69431 539.176 2.48358C538.935 2.27285 538.619 2.16749 538.228 2.16749H535.699C535.338 2.16749 535.158 1.9116 535.158 1.39984C535.158 0.707444 535.489 0.361248 536.151 0.361248H550.236C550.748 0.361248 551.004 0.556924 551.004 0.948276C551.004 1.24932 550.899 1.52025 550.688 1.76109C550.447 2.03202 550.176 2.16749 549.875 2.16749H547.347C546.896 2.16749 546.459 2.30296 546.038 2.57389C545.647 2.87493 545.406 3.23618 545.316 3.65764L539.085 30.977C538.453 33.9573 537.054 36.9075 534.887 39.8276C532.75 42.7477 529.469 44.2077 525.045 44.2077ZM554.661 44.2077C553.547 44.2077 552.388 43.9217 551.184 43.3498C550.011 42.7778 549.017 41.8596 548.205 40.5952C547.392 39.3309 546.986 37.6902 546.986 35.6732C546.986 33.0843 547.618 30.3448 548.882 27.4548C550.176 24.5649 551.862 22.1415 553.938 20.1847C556.045 18.228 558.212 17.2496 560.439 17.2496C561.613 17.2496 562.682 17.5807 563.645 18.243C564.608 18.9053 565.375 19.6579 565.947 20.5008C566.068 20.6513 566.203 20.7266 566.353 20.7266C566.654 20.7266 566.85 20.5761 566.94 20.275L567.301 18.9655C567.452 18.4236 567.798 18.1527 568.34 18.1527H570.371C571.034 18.1527 571.304 18.514 571.184 19.2365C568.054 31.7898 566.489 38.8191 566.489 40.3243C566.489 40.8361 566.624 41.2425 566.895 41.5435C567.166 41.8446 567.512 41.9951 567.934 41.9951C568.836 41.9951 569.785 41.3027 570.778 39.9179C571.801 38.5632 572.794 36.7269 573.757 34.4089L574.48 34.5895C573.125 37.7805 571.831 40.1437 570.597 41.679C569.333 43.2143 567.708 43.9819 565.721 43.9819C564.517 43.9819 563.705 43.6959 563.284 43.124C562.862 42.5219 562.516 41.6338 562.245 40.4598C562.215 40.0082 562.05 39.948 561.749 40.2791C560.484 41.5435 559.326 42.5068 558.272 43.1691C557.189 43.8615 555.985 44.2077 554.661 44.2077ZM555.112 42.5369C557.129 42.5369 558.769 41.8596 560.033 40.5049C561.297 39.1804 562.351 37.2989 563.193 34.8604C564.036 32.4521 564.924 29.0955 565.857 24.7906C565.857 23.3155 565.511 21.9157 564.818 20.5911C564.126 19.2967 563.043 18.6494 561.568 18.6494C559.582 18.6494 557.806 19.673 556.241 21.72C554.646 23.7671 553.412 26.2808 552.539 29.2611C551.636 32.2113 551.184 34.9357 551.184 37.4343C551.184 39.1201 551.47 40.3996 552.042 41.2726C552.614 42.1155 553.637 42.5369 555.112 42.5369ZM562.787 14.4048L562.019 13.592C563.524 11.876 564.864 10.3106 566.037 8.89573C567.181 7.48084 567.949 6.53257 568.34 6.0509L569.739 4.38013C570.492 3.3867 571.169 2.70936 571.771 2.34811C572.373 1.95676 573.035 1.76109 573.757 1.76109C574.48 1.76109 575.036 2.01697 575.428 2.52874C575.849 3.0405 575.985 3.58238 575.834 4.15435C575.684 4.87685 575.413 5.44882 575.021 5.87028C574.66 6.29174 573.983 6.84866 572.99 7.54105C572.719 7.75178 572.448 7.9324 572.177 8.08292C571.876 8.26355 571.59 8.45922 571.319 8.66995C569.243 9.96442 566.399 11.876 562.787 14.4048ZM597.91 43.9819C596.676 43.9819 595.758 43.6508 595.156 42.9885C594.554 42.3262 594.254 41.4833 594.254 40.4598C594.254 40.1286 594.284 39.7674 594.344 39.376C594.404 39.0148 594.434 38.7589 594.434 38.6084H594.118C593.366 39.7222 592.267 40.8812 590.822 42.0854C589.408 43.3196 587.707 43.9368 585.721 43.9368C584.066 43.9368 582.877 43.425 582.154 42.4015C581.402 41.408 581.026 40.3243 581.026 39.1502C581.026 37.8859 581.267 36.3957 581.748 34.6798C582.23 32.9639 582.892 30.9018 583.735 28.4934C584.457 26.4464 584.984 24.8207 585.315 23.6166C585.676 22.4124 585.856 21.434 585.856 20.6814C585.856 19.6579 585.465 19.1461 584.683 19.1461C583.569 19.1461 582.485 20.0192 581.432 21.7652C580.409 23.4811 579.521 25.2723 578.769 27.1388H577.82C579.205 23.6166 580.574 21.0878 581.929 19.5525C583.283 18.0172 584.938 17.2496 586.895 17.2496C588.038 17.2496 588.851 17.5055 589.333 18.0172C589.784 18.529 590.01 19.2816 590.01 20.275C590.01 21.2685 589.814 22.4726 589.423 23.8875C589.002 25.2723 588.415 27.0183 587.662 29.1256C586.819 31.7146 586.218 33.6111 585.856 34.8153C585.495 36.0495 585.315 37.1483 585.315 38.1117C585.315 39.075 585.555 39.8276 586.037 40.3695C586.488 40.8812 587.12 41.1371 587.933 41.1371C589.769 41.1371 591.304 40.3093 592.538 38.6535C593.772 36.9978 594.78 34.8153 595.563 32.1059C596.375 29.4267 597.353 25.5282 598.497 20.4105L598.813 19.0107C598.934 18.4387 599.265 18.1527 599.806 18.1527H602.019C602.35 18.1527 602.59 18.243 602.741 18.4236C602.891 18.6043 602.921 18.8451 602.831 19.1461L602.199 21.6297C599.551 32.1059 598.226 38.2772 598.226 40.1437C598.226 40.8662 598.362 41.3478 598.633 41.5887C598.904 41.8596 599.295 41.9951 599.806 41.9951C600.679 41.9951 601.612 41.3177 602.605 39.9631C603.599 38.6084 604.577 36.757 605.54 34.4089L606.307 34.5895C605.013 37.5698 603.749 39.8878 602.515 41.5435C601.311 43.1691 599.776 43.9819 597.91 43.9819ZM613.034 43.3498C612.733 43.3498 612.492 43.2594 612.312 43.0788C612.161 42.8982 612.116 42.6423 612.176 42.3112L613.711 36.0345C614.765 31.6393 615.517 28.358 615.969 26.1905C616.45 24.023 616.691 22.3522 616.691 21.1782C616.691 19.8235 616.345 19.1461 615.653 19.1461C614.78 19.1461 613.802 19.8837 612.718 21.3588C611.665 22.8038 610.717 24.6251 609.874 26.8227L609.106 26.5969C610.371 23.6467 611.635 21.3588 612.899 19.7332C614.163 18.0774 615.683 17.2496 617.458 17.2496C619.806 17.2496 620.98 18.4688 620.98 20.9072C620.98 21.6899 620.829 22.7135 620.528 23.9778C620.589 23.8875 620.935 23.2553 621.567 22.0813C622.199 20.9373 623.177 19.8536 624.501 18.83C625.856 17.7764 627.3 17.2496 628.835 17.2496C629.919 17.3098 630.731 17.5807 631.273 18.0624C631.815 18.5742 632.086 19.2515 632.086 20.0944C632.086 20.3051 632.056 20.6664 631.995 21.1782C631.815 22.1114 631.423 22.8941 630.822 23.5263C630.19 24.1585 629.482 24.4745 628.7 24.4745C628.188 24.4745 627.782 24.309 627.481 23.9778C627.15 23.6768 626.984 23.2102 626.984 22.578C626.984 22.0963 627.059 21.72 627.21 21.4491C627.36 21.1782 627.586 20.8922 627.887 20.5911C628.248 20.1396 628.429 19.7633 628.429 19.4622C628.429 18.9505 628.113 18.6946 627.481 18.6946C626.638 18.6946 625.69 19.0859 624.637 19.8686C623.583 20.6513 622.575 21.8405 621.612 23.436C620.649 25.0616 619.896 27.0334 619.355 29.3514L616.375 42.5369C616.255 43.0788 615.908 43.3498 615.337 43.3498H613.034ZM640.257 43.9368C637.819 43.9368 635.727 43.139 633.982 41.5435C632.266 39.948 631.408 37.645 631.408 34.6346C631.408 33.7917 631.559 32.5725 631.86 30.977C632.492 28.2375 633.591 25.8292 635.156 23.7521C636.691 21.6448 638.436 20.0342 640.392 18.9204C642.319 17.8065 644.155 17.2496 645.9 17.2496C648.489 17.2496 650.37 18.1076 651.543 19.8235C652.687 21.5394 653.259 23.5263 653.259 25.7841C653.259 26.8377 653.184 27.6806 653.033 28.3128C652.823 29.3363 652.341 29.8481 651.589 29.8481H639.625C638.572 29.8481 637.804 29.9234 637.323 30.0739C636.841 30.2244 636.54 30.5857 636.42 31.1576C636.359 31.4587 636.224 32.1511 636.013 33.2348C635.803 34.3487 635.697 35.3722 635.697 36.3054C635.697 40.4598 637.624 42.5369 641.476 42.5369H641.657C642.921 42.5068 644.215 42.1155 645.539 41.3629C646.863 40.6404 648.368 39.2857 650.054 37.2989C650.234 37.1182 650.46 37.0279 650.731 37.0279C650.942 37.0279 651.092 37.1032 651.182 37.2537C651.243 37.3741 651.182 37.5547 651.002 37.7956C650.671 38.3073 650.024 39.0449 649.06 40.0082C648.127 40.9414 646.878 41.8295 645.313 42.6724C643.748 43.5153 642.063 43.9368 640.257 43.9368ZM637.277 28.2677H647.345C647.917 28.2677 648.278 28.2074 648.428 28.087C648.549 27.9967 648.669 27.6806 648.79 27.1388C649.091 25.9346 649.241 24.595 649.241 23.1199C649.241 19.9288 648.142 18.3333 645.945 18.3333C644.35 18.3333 642.755 19.1612 641.16 20.8169C639.595 22.5027 638.301 24.9863 637.277 28.2677ZM683.552 19.2816C683.642 20.0041 683.537 20.5911 683.236 21.0427C682.935 21.4641 682.468 21.6749 681.836 21.6749C681.415 21.6749 681.099 21.5996 680.888 21.4491C680.677 21.2685 680.452 20.9975 680.211 20.6363C679.94 20.275 679.669 20.0944 679.398 20.0944C678.586 20.0944 678.179 21.1782 678.179 23.3456L678.225 24.8358C678.375 26.8528 677.924 28.659 676.87 30.2545C675.847 31.8199 674.462 33.0542 672.717 33.9573C670.971 34.8303 669.12 35.2668 667.164 35.2668C666.08 35.2668 665.132 35.1163 664.32 34.8153C662.785 34.9959 661.671 35.3872 660.979 35.9893C660.317 36.5613 659.986 37.1634 659.986 37.7956C659.986 38.5181 660.452 38.9997 661.385 39.2406C662.288 39.4513 663.823 39.647 665.99 39.8276C667.796 39.9179 669.105 40.0233 669.918 40.1437C672.446 40.4748 674.372 41.092 675.696 41.9951C677.051 42.8982 677.728 44.3883 677.728 46.4655C677.728 49.205 676.524 51.3123 674.116 52.7874C671.678 54.2625 668.277 55 663.913 55C657.503 55 654.297 53.2991 654.297 49.8974C654.297 48.332 654.869 47.0676 656.013 46.1043C657.126 45.1108 658.737 44.2228 660.844 43.4401C659.369 43.2293 658.285 42.8229 657.593 42.2209C656.901 41.5887 656.555 40.6855 656.555 39.5115C656.555 38.1267 657.096 37.043 658.18 36.2603C659.263 35.4776 660.964 34.8604 663.281 34.4089C660.452 32.9639 659.038 30.6158 659.038 27.3645C659.038 25.4379 659.519 23.7069 660.482 22.1716C661.445 20.6363 662.77 19.4321 664.455 18.5591C666.11 17.6861 667.901 17.2496 669.827 17.2496C671.693 17.2496 673.289 17.656 674.613 18.4688C675.937 19.2515 676.915 20.3654 677.547 21.8103C677.728 20.0342 678.179 18.83 678.902 18.1979C679.654 17.5657 680.452 17.2496 681.295 17.2496C682.709 17.2496 683.462 17.9269 683.552 19.2816ZM667.435 34.1831C668.518 34.1831 669.557 33.8218 670.55 33.0993C671.513 32.3467 672.28 31.263 672.852 29.8481C673.454 28.4031 673.755 26.6872 673.755 24.7003C673.755 22.6834 673.454 21.118 672.852 20.0041C672.22 18.8903 671.152 18.3333 669.647 18.3333C667.751 18.3333 666.231 19.2064 665.087 20.9524C663.943 22.6984 663.372 24.8207 663.372 27.3194C663.372 31.8952 664.726 34.1831 667.435 34.1831ZM664.726 43.9368C664.335 43.8465 663.718 43.8013 662.875 43.8013C659.625 45.0657 657.999 47.0224 657.999 49.6716C657.999 51.0865 658.541 52.11 659.625 52.7422C660.708 53.4045 662.619 53.7356 665.358 53.7356C668.639 53.7356 671.062 53.269 672.627 52.3358C674.192 51.3725 674.974 50.093 674.974 48.4975C674.974 47.3235 674.553 46.4354 673.71 45.8333C672.867 45.2313 671.784 44.8248 670.46 44.6141C669.165 44.3733 667.254 44.1475 664.726 43.9368ZM703.958 43.9819C702.754 43.9819 701.836 43.6508 701.204 42.9885C700.602 42.3262 700.301 41.4833 700.301 40.4598C700.301 40.1286 700.331 39.7674 700.391 39.376C700.451 39.0148 700.481 38.7589 700.481 38.6084H700.165C699.413 39.7222 698.314 40.8812 696.87 42.0854C695.455 43.3196 693.755 43.9368 691.768 43.9368C690.113 43.9368 688.924 43.425 688.202 42.4015C687.449 41.408 687.073 40.3243 687.073 39.1502C687.073 37.8859 687.329 36.3957 687.841 34.6798C688.322 32.9639 688.984 30.9018 689.827 28.4934C690.519 26.4464 691.046 24.8207 691.407 23.6166C691.738 22.4124 691.904 21.434 691.904 20.6814C691.904 19.6579 691.528 19.1461 690.775 19.1461C689.631 19.1461 688.548 20.0192 687.525 21.7652C686.471 23.4811 685.568 25.2723 684.816 27.1388H683.868C685.252 23.6166 686.622 21.0878 687.976 19.5525C689.33 18.0172 691.001 17.2496 692.987 17.2496C694.101 17.2496 694.898 17.5055 695.38 18.0172C695.831 18.529 696.057 19.2816 696.057 20.275C696.057 21.2685 695.862 22.4726 695.47 23.8875C695.079 25.2723 694.492 27.0183 693.71 29.1256C692.867 31.7146 692.28 33.6111 691.949 34.8153C691.588 36.0495 691.407 37.1483 691.407 38.1117C691.407 39.075 691.633 39.8276 692.084 40.3695C692.536 40.8812 693.168 41.1371 693.98 41.1371C695.846 41.1371 697.381 40.3093 698.585 38.6535C699.819 36.9978 700.828 34.8153 701.61 32.1059C702.423 29.4267 703.401 25.5282 704.545 20.4105L704.861 19.0107C704.981 18.4387 705.312 18.1527 705.854 18.1527H708.066C708.397 18.1527 708.638 18.243 708.788 18.4236C708.939 18.6043 708.969 18.8451 708.879 19.1461L708.247 21.6297C705.598 32.1059 704.274 38.2772 704.274 40.1437C704.274 40.8662 704.409 41.3478 704.68 41.5887C704.951 41.8596 705.342 41.9951 705.854 41.9951C706.757 41.9951 707.705 41.3177 708.698 39.9631C709.661 38.6084 710.639 36.757 711.632 34.4089L712.355 34.5895C711.061 37.5698 709.797 39.8878 708.563 41.5435C707.359 43.1691 705.824 43.9819 703.958 43.9819ZM727.433 9.0312C726.862 9.0312 726.395 8.82047 726.034 8.39902C725.643 7.97756 725.447 7.45074 725.447 6.81856C725.447 5.94554 725.793 5.10263 726.485 4.28982C727.178 3.44691 727.945 3.02545 728.788 3.02545C729.42 3.02545 729.947 3.26628 730.368 3.74795C730.789 4.19951 731 4.74138 731 5.37356C731 6.21648 730.624 7.04434 729.871 7.85714C729.119 8.63985 728.306 9.0312 727.433 9.0312ZM721.835 43.9819C720.782 43.9819 719.879 43.6658 719.127 43.0337C718.344 42.3714 717.953 41.393 717.953 40.0985C717.953 38.9847 718.194 37.63 718.675 36.0345C719.187 34.439 719.954 32.2715 720.978 29.532C721.098 29.1407 721.429 28.2225 721.971 26.7775C722.482 25.3325 722.859 24.1284 723.099 23.165C723.37 22.2318 723.506 21.4792 723.506 20.9072C723.506 20.4256 723.4 20.0041 723.19 19.6429C722.979 19.3117 722.663 19.1461 722.242 19.1461C721.309 19.1461 720.315 19.8385 719.262 21.2233C718.209 22.6382 717.215 24.5047 716.282 26.8227L715.515 26.5969C716.779 23.737 718.073 21.4641 719.398 19.7783C720.692 18.0925 722.242 17.2496 724.048 17.2496C725.161 17.2496 726.049 17.5657 726.711 18.1979C727.403 18.7999 727.749 19.7031 727.749 20.9072C727.749 21.9609 727.509 23.2854 727.027 24.881C726.515 26.4464 725.823 28.4182 724.95 30.7964C724.017 33.3251 723.34 35.2518 722.919 36.5764C722.498 37.9009 722.287 39.0298 722.287 39.9631C722.287 41.3177 722.753 41.9951 723.686 41.9951C724.649 41.9951 725.643 41.2876 726.666 39.8727C727.659 38.4579 728.622 36.6366 729.555 34.4089L730.278 34.5895C729.044 37.5397 727.795 39.8426 726.531 41.4984C725.266 43.1541 723.701 43.9819 721.835 43.9819Z" fill="black"/>
<path d="M171.618 92.1069C170.709 91.64 169.713 91.2346 168.632 90.8906C167.551 90.5466 166.507 90.3746 165.499 90.3746C164.05 90.3746 162.895 90.7063 162.035 91.3697C161.199 92.0331 160.782 92.93 160.782 94.0603C160.782 94.8711 161.052 95.5591 161.593 96.1243C162.158 96.6894 162.87 97.1931 163.73 97.6354C164.615 98.0531 165.549 98.4463 166.531 98.8149C167.637 99.2326 168.706 99.7363 169.738 100.326C170.77 100.916 171.618 101.714 172.281 102.722C172.969 103.705 173.313 105.031 173.313 106.702C173.313 108.127 172.957 109.417 172.244 110.572C171.532 111.703 170.524 112.612 169.222 113.3C167.92 113.963 166.372 114.295 164.578 114.295C162.809 114.295 161.163 114.012 159.639 113.447C158.14 112.882 156.863 112.231 155.806 111.494L157.391 108.656C158.251 109.319 159.307 109.897 160.561 110.388C161.838 110.879 163.055 111.125 164.209 111.125C165.069 111.125 165.905 110.978 166.716 110.683C167.551 110.388 168.239 109.921 168.78 109.282C169.32 108.619 169.591 107.771 169.591 106.739C169.591 105.855 169.345 105.105 168.853 104.491C168.362 103.877 167.723 103.361 166.937 102.943C166.175 102.501 165.34 102.107 164.431 101.763C163.595 101.469 162.747 101.125 161.887 100.731C161.027 100.338 160.229 99.8714 159.492 99.3309C158.779 98.7657 158.202 98.0777 157.759 97.2669C157.317 96.456 157.096 95.4731 157.096 94.3183C157.096 92.9177 157.428 91.7014 158.091 90.6694C158.779 89.6129 159.713 88.7897 160.892 88.2C162.072 87.5857 163.435 87.254 164.983 87.2049C166.679 87.2049 168.178 87.4137 169.48 87.8314C170.807 88.2491 171.974 88.7529 172.981 89.3426L171.618 92.1069ZM178.437 98.7411H181.865V114H178.437V98.7411ZM178.179 93.2494C178.179 92.6843 178.388 92.2297 178.806 91.8857C179.248 91.5171 179.727 91.3329 180.243 91.3329C180.759 91.3329 181.226 91.5171 181.644 91.8857C182.062 92.2297 182.271 92.6843 182.271 93.2494C182.271 93.8146 182.062 94.2814 181.644 94.65C181.226 94.994 180.759 95.166 180.243 95.166C179.727 95.166 179.248 94.994 178.806 94.65C178.388 94.2814 178.179 93.8146 178.179 93.2494ZM189.306 92.0331H192.771V98.778H196.935V101.505H192.771V114H189.306V101.505H186.505V98.778H189.306V92.0331ZM201.113 98.7411H204.541V114H201.113V98.7411ZM200.855 93.2494C200.855 92.6843 201.064 92.2297 201.482 91.8857C201.924 91.5171 202.403 91.3329 202.919 91.3329C203.435 91.3329 203.902 91.5171 204.32 91.8857C204.737 92.2297 204.946 92.6843 204.946 93.2494C204.946 93.8146 204.737 94.2814 204.32 94.65C203.902 94.994 203.435 95.166 202.919 95.166C202.403 95.166 201.924 94.994 201.482 94.65C201.064 94.2814 200.855 93.8146 200.855 93.2494ZM209.181 106.223C209.181 104.7 209.537 103.324 210.249 102.095C210.987 100.867 211.994 99.896 213.272 99.1834C214.549 98.4709 216.011 98.1146 217.658 98.1146C219.304 98.1146 220.754 98.4709 222.007 99.1834C223.26 99.896 224.231 100.867 224.919 102.095C225.631 103.324 225.987 104.7 225.987 106.223C225.987 107.747 225.631 109.123 224.919 110.351C224.231 111.58 223.248 112.563 221.97 113.3C220.717 114.012 219.255 114.369 217.584 114.369C215.962 114.369 214.513 114.037 213.235 113.373C211.982 112.71 210.987 111.764 210.249 110.535C209.537 109.307 209.181 107.869 209.181 106.223ZM212.645 106.26C212.645 107.243 212.854 108.14 213.272 108.951C213.714 109.737 214.304 110.363 215.041 110.83C215.778 111.297 216.613 111.531 217.547 111.531C218.505 111.531 219.353 111.297 220.09 110.83C220.827 110.363 221.405 109.737 221.823 108.951C222.265 108.14 222.486 107.243 222.486 106.26C222.486 105.277 222.265 104.393 221.823 103.606C221.405 102.795 220.827 102.157 220.09 101.69C219.353 101.198 218.505 100.953 217.547 100.953C216.613 100.953 215.766 101.198 215.004 101.69C214.267 102.181 213.689 102.832 213.272 103.643C212.854 104.429 212.645 105.302 212.645 106.26ZM252.058 98.7411L256.186 108.25L260.056 98.7411H263.446L256.407 114.921L251.505 104.454L247.045 114.921L239.968 98.7411H243.359L247.414 107.992L250.288 101.358L249.072 98.7411H252.058ZM273.842 114.369C272.122 114.369 270.623 114.025 269.345 113.337C268.092 112.624 267.121 111.653 266.433 110.425C265.77 109.196 265.438 107.808 265.438 106.26C265.438 104.761 265.807 103.397 266.544 102.169C267.306 100.916 268.325 99.9329 269.603 99.2203C270.905 98.4831 272.343 98.1146 273.915 98.1146C275.93 98.1146 277.601 98.7043 278.928 99.8837C280.255 101.063 281.164 102.685 281.655 104.749L269.566 108.987C269.984 109.749 270.574 110.351 271.335 110.793C272.097 111.211 272.957 111.42 273.915 111.42C274.603 111.42 275.254 111.297 275.869 111.051C276.483 110.806 277.073 110.486 277.638 110.093L279.223 112.636C278.436 113.152 277.564 113.57 276.606 113.889C275.672 114.209 274.751 114.369 273.842 114.369ZM268.829 106.076C268.804 106.371 268.817 106.653 268.866 106.923L277.748 103.643C277.404 102.906 276.901 102.255 276.237 101.69C275.598 101.125 274.738 100.842 273.657 100.842C272.257 100.842 271.102 101.333 270.193 102.316C269.284 103.299 268.829 104.552 268.829 106.076ZM295.238 114.369C293.936 114.369 292.781 114.123 291.774 113.631C290.791 113.115 289.98 112.464 289.341 111.678V114H285.913V85.4357H289.341V100.805C289.955 99.9943 290.815 99.3431 291.921 98.8517C293.027 98.3603 294.28 98.1146 295.681 98.1146C297.032 98.1146 298.273 98.4463 299.403 99.1097C300.533 99.7486 301.443 100.67 302.131 101.874C302.819 103.078 303.163 104.491 303.163 106.113C303.163 107.857 302.794 109.344 302.057 110.572C301.32 111.801 300.349 112.747 299.145 113.41C297.941 114.049 296.639 114.369 295.238 114.369ZM294.501 111.42C296 111.42 297.229 110.929 298.187 109.946C299.17 108.938 299.661 107.661 299.661 106.113C299.661 105.13 299.428 104.245 298.961 103.459C298.519 102.648 297.904 102.009 297.118 101.542C296.356 101.075 295.484 100.842 294.501 100.842C293.223 100.842 292.118 101.186 291.184 101.874C290.25 102.562 289.636 103.447 289.341 104.528V107.661C289.636 108.742 290.238 109.639 291.147 110.351C292.056 111.064 293.174 111.42 294.501 111.42ZM326.5 114.369C324.78 114.369 323.281 114.025 322.003 113.337C320.75 112.624 319.779 111.653 319.091 110.425C318.428 109.196 318.096 107.808 318.096 106.26C318.096 104.761 318.465 103.397 319.202 102.169C319.964 100.916 320.983 99.9329 322.261 99.2203C323.563 98.4831 325.001 98.1146 326.573 98.1146C328.588 98.1146 330.259 98.7043 331.586 99.8837C332.913 101.063 333.822 102.685 334.313 104.749L322.224 108.987C322.642 109.749 323.232 110.351 323.993 110.793C324.755 111.211 325.615 111.42 326.573 111.42C327.261 111.42 327.913 111.297 328.527 111.051C329.141 110.806 329.731 110.486 330.296 110.093L331.881 112.636C331.095 113.152 330.222 113.57 329.264 113.889C328.33 114.209 327.409 114.369 326.5 114.369ZM321.487 106.076C321.463 106.371 321.475 106.653 321.524 106.923L330.407 103.643C330.063 102.906 329.559 102.255 328.895 101.69C328.257 101.125 327.397 100.842 326.315 100.842C324.915 100.842 323.76 101.333 322.851 102.316C321.942 103.299 321.487 104.552 321.487 106.076ZM341.668 98.7411L341.889 101.69C342.405 100.609 343.203 99.7486 344.284 99.1097C345.366 98.4709 346.619 98.1514 348.044 98.1514C349.469 98.1514 350.636 98.5814 351.545 99.4414C352.479 100.277 352.97 101.37 353.02 102.722V114H349.555V103.901C349.506 103.09 349.248 102.427 348.781 101.911C348.339 101.395 347.638 101.125 346.68 101.1C345.353 101.1 344.235 101.641 343.326 102.722C342.442 103.778 341.999 105.154 341.999 106.85V114H338.572V98.7411H341.668ZM382.99 112.563C382.302 113.128 381.479 113.57 380.52 113.889C379.562 114.209 378.604 114.369 377.645 114.369C375.999 114.369 374.537 114.037 373.259 113.373C372.006 112.71 371.023 111.776 370.311 110.572C369.623 109.368 369.279 107.955 369.279 106.334C369.279 104.712 369.647 103.311 370.385 102.132C371.146 100.928 372.129 99.9943 373.333 99.3309C374.562 98.6674 375.889 98.3357 377.314 98.3357C378.542 98.3357 379.636 98.5077 380.594 98.8517C381.552 99.1957 382.388 99.6626 383.1 100.252L381.368 102.501C380.926 102.181 380.385 101.886 379.746 101.616C379.107 101.321 378.395 101.174 377.609 101.174C376.699 101.174 375.876 101.407 375.139 101.874C374.402 102.316 373.812 102.931 373.37 103.717C372.928 104.479 372.707 105.351 372.707 106.334C372.707 107.292 372.928 108.164 373.37 108.951C373.812 109.737 374.427 110.363 375.213 110.83C375.999 111.297 376.908 111.531 377.94 111.531C378.579 111.531 379.169 111.432 379.709 111.236C380.275 111.039 380.778 110.769 381.221 110.425L382.99 112.563ZM386.088 106.223C386.088 104.7 386.444 103.324 387.157 102.095C387.894 100.867 388.901 99.896 390.179 99.1834C391.457 98.4709 392.919 98.1146 394.565 98.1146C396.211 98.1146 397.661 98.4709 398.914 99.1834C400.167 99.896 401.138 100.867 401.826 102.095C402.538 103.324 402.895 104.7 402.895 106.223C402.895 107.747 402.538 109.123 401.826 110.351C401.138 111.58 400.155 112.563 398.877 113.3C397.624 114.012 396.162 114.369 394.491 114.369C392.869 114.369 391.42 114.037 390.142 113.373C388.889 112.71 387.894 111.764 387.157 110.535C386.444 109.307 386.088 107.869 386.088 106.223ZM389.552 106.26C389.552 107.243 389.761 108.14 390.179 108.951C390.621 109.737 391.211 110.363 391.948 110.83C392.685 111.297 393.521 111.531 394.454 111.531C395.413 111.531 396.26 111.297 396.997 110.83C397.735 110.363 398.312 109.737 398.73 108.951C399.172 108.14 399.393 107.243 399.393 106.26C399.393 105.277 399.172 104.393 398.73 103.606C398.312 102.795 397.735 102.157 396.997 101.69C396.26 101.198 395.413 100.953 394.454 100.953C393.521 100.953 392.673 101.198 391.911 101.69C391.174 102.181 390.597 102.832 390.179 103.643C389.761 104.429 389.552 105.302 389.552 106.26ZM410.595 98.7411L410.816 101.69C411.332 100.609 412.131 99.7486 413.212 99.1097C414.293 98.4709 415.546 98.1514 416.971 98.1514C418.396 98.1514 419.563 98.5814 420.473 99.4414C421.406 100.277 421.898 101.37 421.947 102.722V114H418.482V103.901C418.433 103.09 418.175 102.427 417.708 101.911C417.266 101.395 416.566 101.125 415.607 101.1C414.281 101.1 413.163 101.641 412.253 102.722C411.369 103.778 410.927 105.154 410.927 106.85V114H407.499V98.7411H410.595ZM432.183 114.295C431.078 114.295 430.009 114.111 428.977 113.742C427.969 113.349 427.134 112.771 426.47 112.01L427.945 110.019C428.559 110.634 429.21 111.101 429.898 111.42C430.586 111.715 431.25 111.862 431.888 111.862C432.626 111.862 433.264 111.715 433.805 111.42C434.37 111.125 434.653 110.621 434.653 109.909C434.653 109.368 434.468 108.938 434.1 108.619C433.756 108.299 433.301 108.054 432.736 107.882C432.196 107.685 431.63 107.489 431.041 107.292C428.436 106.457 427.134 104.97 427.134 102.832C427.134 102.046 427.33 101.297 427.724 100.584C428.141 99.8714 428.743 99.294 429.53 98.8517C430.34 98.4094 431.336 98.1883 432.515 98.1883C433.572 98.1883 434.518 98.3234 435.353 98.5937C436.188 98.864 436.975 99.294 437.712 99.8837L436.348 101.985C435.906 101.542 435.378 101.211 434.763 100.989C434.174 100.744 433.633 100.609 433.142 100.584C432.478 100.584 431.888 100.744 431.372 101.063C430.881 101.383 430.635 101.825 430.635 102.39C430.611 102.906 430.77 103.324 431.114 103.643C431.458 103.938 431.901 104.184 432.441 104.38C433.006 104.577 433.572 104.761 434.137 104.933C435.242 105.302 436.176 105.805 436.938 106.444C437.724 107.083 438.117 108.017 438.117 109.245C438.117 110.621 437.626 111.813 436.643 112.821C435.66 113.803 434.174 114.295 432.183 114.295ZM444.391 92.0331H447.855V98.778H452.02V101.505H447.855V114H444.391V101.505H441.589V98.778H444.391V92.0331ZM459.257 98.7411L459.515 102.316C459.933 101.456 460.51 100.719 461.247 100.105C461.984 99.466 462.746 98.9869 463.532 98.6674C464.343 98.3234 465.043 98.1391 465.633 98.1146L465.486 101.542C464.331 101.493 463.311 101.727 462.427 102.243C461.542 102.734 460.854 103.41 460.363 104.27C459.871 105.13 459.625 106.051 459.625 107.034V114H456.198V98.7411H459.257ZM474.92 114.59C473.52 114.59 472.365 114.172 471.456 113.337C470.547 112.477 470.08 111.371 470.055 110.019V98.7411H473.483V108.803C473.532 109.639 473.778 110.314 474.22 110.83C474.662 111.346 475.35 111.617 476.284 111.641C477.119 111.641 477.881 111.395 478.569 110.904C479.257 110.388 479.798 109.7 480.191 108.84C480.609 107.955 480.817 106.96 480.817 105.855V98.7411H484.245V114H481.149L480.891 111.125C480.4 112.133 479.613 112.968 478.532 113.631C477.476 114.27 476.272 114.59 474.92 114.59ZM502.595 112.563C501.907 113.128 501.084 113.57 500.126 113.889C499.168 114.209 498.209 114.369 497.251 114.369C495.605 114.369 494.143 114.037 492.865 113.373C491.612 112.71 490.629 111.776 489.917 110.572C489.229 109.368 488.885 107.955 488.885 106.334C488.885 104.712 489.253 103.311 489.99 102.132C490.752 100.928 491.735 99.9943 492.939 99.3309C494.167 98.6674 495.494 98.3357 496.919 98.3357C498.148 98.3357 499.241 98.5077 500.2 98.8517C501.158 99.1957 501.993 99.6626 502.706 100.252L500.974 102.501C500.531 102.181 499.991 101.886 499.352 101.616C498.713 101.321 498.001 101.174 497.214 101.174C496.305 101.174 495.482 101.407 494.745 101.874C494.008 102.316 493.418 102.931 492.976 103.717C492.533 104.479 492.312 105.351 492.312 106.334C492.312 107.292 492.533 108.164 492.976 108.951C493.418 109.737 494.032 110.363 494.819 110.83C495.605 111.297 496.514 111.531 497.546 111.531C498.185 111.531 498.775 111.432 499.315 111.236C499.88 111.039 500.384 110.769 500.826 110.425L502.595 112.563ZM519.404 112.563C518.716 113.128 517.893 113.57 516.935 113.889C515.977 114.209 515.018 114.369 514.06 114.369C512.414 114.369 510.952 114.037 509.674 113.373C508.421 112.71 507.438 111.776 506.725 110.572C506.037 109.368 505.693 107.955 505.693 106.334C505.693 104.712 506.062 103.311 506.799 102.132C507.561 100.928 508.544 99.9943 509.748 99.3309C510.976 98.6674 512.303 98.3357 513.728 98.3357C514.957 98.3357 516.05 98.5077 517.009 98.8517C517.967 99.1957 518.802 99.6626 519.515 100.252L517.783 102.501C517.34 102.181 516.8 101.886 516.161 101.616C515.522 101.321 514.809 101.174 514.023 101.174C513.114 101.174 512.291 101.407 511.554 101.874C510.817 102.316 510.227 102.931 509.785 103.717C509.342 104.479 509.121 105.351 509.121 106.334C509.121 107.292 509.342 108.164 509.785 108.951C510.227 109.737 510.841 110.363 511.627 110.83C512.414 111.297 513.323 111.531 514.355 111.531C514.994 111.531 515.583 111.432 516.124 111.236C516.689 111.039 517.193 110.769 517.635 110.425L519.404 112.563ZM523.829 98.7411H527.257V114H523.829V98.7411ZM523.571 93.2494C523.571 92.6843 523.78 92.2297 524.198 91.8857C524.64 91.5171 525.119 91.3329 525.635 91.3329C526.151 91.3329 526.618 91.5171 527.036 91.8857C527.453 92.2297 527.662 92.6843 527.662 93.2494C527.662 93.8146 527.453 94.2814 527.036 94.65C526.618 94.994 526.151 95.166 525.635 95.166C525.119 95.166 524.64 94.994 524.198 94.65C523.78 94.2814 523.571 93.8146 523.571 93.2494ZM531.897 106.223C531.897 104.7 532.253 103.324 532.965 102.095C533.703 100.867 534.71 99.896 535.988 99.1834C537.265 98.4709 538.727 98.1146 540.374 98.1146C542.02 98.1146 543.47 98.4709 544.723 99.1834C545.976 99.896 546.947 100.867 547.635 102.095C548.347 103.324 548.703 104.7 548.703 106.223C548.703 107.747 548.347 109.123 547.635 110.351C546.947 111.58 545.964 112.563 544.686 113.3C543.433 114.012 541.971 114.369 540.3 114.369C538.678 114.369 537.229 114.037 535.951 113.373C534.698 112.71 533.703 111.764 532.965 110.535C532.253 109.307 531.897 107.869 531.897 106.223ZM535.361 106.26C535.361 107.243 535.57 108.14 535.988 108.951C536.43 109.737 537.02 110.363 537.757 110.83C538.494 111.297 539.329 111.531 540.263 111.531C541.221 111.531 542.069 111.297 542.806 110.83C543.543 110.363 544.121 109.737 544.539 108.951C544.981 108.14 545.202 107.243 545.202 106.26C545.202 105.277 544.981 104.393 544.539 103.606C544.121 102.795 543.543 102.157 542.806 101.69C542.069 101.198 541.221 100.953 540.263 100.953C539.329 100.953 538.482 101.198 537.72 101.69C536.983 102.181 536.405 102.832 535.988 103.643C535.57 104.429 535.361 105.302 535.361 106.26ZM544.502 90.9274L539.821 95.8663H537.609L540.669 90.9274H544.502ZM556.404 98.7411L556.625 101.69C557.141 100.609 557.939 99.7486 559.021 99.1097C560.102 98.4709 561.355 98.1514 562.78 98.1514C564.205 98.1514 565.372 98.5814 566.281 99.4414C567.215 100.277 567.707 101.37 567.756 102.722V114H564.291V103.901C564.242 103.09 563.984 102.427 563.517 101.911C563.075 101.395 562.375 101.125 561.416 101.1C560.089 101.1 558.971 101.641 558.062 102.722C557.178 103.778 556.735 105.154 556.735 106.85V114H553.308V98.7411H556.404Z" fill="black"/>
</svg>
